<svg xmlns="http://www.w3.org/2000/svg" style="display:none">
  <defs>
    <symbol id="book" viewBox="0 0 24 24" fill="none" stroke="currentColor" stroke-width="1.7" stroke-linecap="round" stroke-linejoin="round">
      <path d="M4 4.5A1.5 1.5 0 0 1 5.5 3H20v16H5.5A1.5 1.5 0 0 0 4 20.5z"/>
      <path d="M4 20.5A1.5 1.5 0 0 1 5.5 19H20"/>
      <path d="M9 7h6M9 11h6"/>
    </symbol>
    <symbol id="sun" viewBox="0 0 24 24" fill="none" stroke="currentColor" stroke-width="1.7" stroke-linecap="round" stroke-linejoin="round">
      <circle cx="12" cy="12" r="4"/>
      <path d="M12 3v2M12 19v2M3 12h2M19 12h2M5.6 5.6l1.4 1.4M17 17l1.4 1.4M5.6 18.4 7 17M17 7l1.4-1.4"/>
    </symbol>
    <symbol id="home" viewBox="0 0 24 24" fill="none" stroke="currentColor" stroke-width="1.7" stroke-linecap="round" stroke-linejoin="round">
      <path d="M3 11 12 4l9 7"/>
      <path d="M5 10v10h14V10"/>
      <path d="M10 20v-6h4v6"/>
    </symbol>
    <symbol id="github" viewBox="0 0 24 24" fill="currentColor">
      <path fill-rule="evenodd" clip-rule="evenodd" d="M12 2a10 10 0 0 0-3.16 19.49c.5.09.69-.22.69-.48v-1.7c-2.78.6-3.37-1.34-3.37-1.34-.46-1.16-1.11-1.47-1.11-1.47-.91-.62.07-.61.07-.61 1 .07 1.53 1.03 1.53 1.03.89 1.53 2.34 1.09 2.92.83.09-.65.35-1.09.63-1.34-2.22-.25-4.55-1.11-4.55-4.94 0-1.09.39-1.98 1.03-2.68-.1-.25-.45-1.27.1-2.65 0 0 .84-.27 2.75 1.02a9.55 9.55 0 0 1 5 0c1.91-1.29 2.75-1.02 2.75-1.02.55 1.38.2 2.4.1 2.65.64.7 1.03 1.59 1.03 2.68 0 3.84-2.34 4.69-4.57 4.94.36.31.68.92.68 1.85v2.74c0 .27.18.58.69.48A10 10 0 0 0 12 2z"/>
    </symbol>
    <symbol id="up" viewBox="0 0 24 24" fill="none" stroke="currentColor" stroke-width="1.8" stroke-linecap="round" stroke-linejoin="round">
      <path d="M6 14l6-6 6 6"/>
    </symbol>
    <symbol id="arrow" viewBox="0 0 24 24" fill="none" stroke="currentColor" stroke-width="1.8" stroke-linecap="round" stroke-linejoin="round">
      <path d="M5 12h14"/>
      <path d="m13 6 6 6-6 6"/>
    </symbol>
    <symbol id="palette" viewBox="0 0 24 24" fill="none" stroke="currentColor" stroke-width="1.7" stroke-linecap="round" stroke-linejoin="round">
      <path d="M12 22a10 10 0 1 1 10-10c0 1.66-1.34 3-3 3h-2a2 2 0 0 0-2 2 2 2 0 0 0 .5 1.32A2 2 0 0 1 14 22z"/>
      <circle cx="6.5" cy="11.5" r="1"/>
      <circle cx="9.5" cy="7.5" r="1"/>
      <circle cx="14.5" cy="7.5" r="1"/>
      <circle cx="17.5" cy="11.5" r="1"/>
    </symbol>
    <symbol id="check" viewBox="0 0 24 24" fill="none" stroke="currentColor" stroke-width="2" stroke-linecap="round" stroke-linejoin="round">
      <path d="M20 6 9 17l-5-5"/>
    </symbol>
  </defs>
</svg>
